<?xml version="1.0" encoding="utf-8"?>
<!-- Generator: Adobe Illustrator 16.0.0, SVG Export Plug-In . SVG Version: 6.00 Build 0)  -->
<!DOCTYPE svg PUBLIC "-//W3C//DTD SVG 1.1//EN" "http://www.w3.org/Graphics/SVG/1.1/DTD/svg11.dtd">
<svg version="1.1" id="Layer_1" xmlns="http://www.w3.org/2000/svg" xmlns:xlink="http://www.w3.org/1999/xlink" x="0px" y="0px"
	 width="114.256px" height="114.027px" viewBox="0 0 114.256 114.027" enable-background="new 0 0 114.256 114.027"
	 xml:space="preserve">
<g>
	<path fill-rule="evenodd" clip-rule="evenodd" fill="#FFFFFF" d="M0.678,115.551c-0.145-0.65-0.416-1.3-0.416-1.949
		C0.242,75.988,0.244,38.375,0.244,0.763c38.552,0,77.103,0,115.654,0c0,37.613,0.002,75.226-0.019,112.839
		c0,0.649-0.271,1.299-0.415,1.949c0.001-21.8,0.017-43.6-0.045-65.399c-0.003-1.019-0.406-2.362-1.118-3.002
		c-6.069-5.442-12.226-10.788-18.437-16.067c-0.791-0.672-2.046-1.082-3.099-1.111c-4.4-0.122-8.808-0.133-13.208-0.015
		c-1.899,0.052-2.623-0.365-2.585-2.476c0.143-7.65,0.066-15.302,0.053-22.954c-0.005-2.614-0.73-3.324-3.352-3.329
		c-5.559-0.011-11.119-0.097-16.672,0.069c-1.285,0.039-2.844,0.654-3.763,1.538c-5.825,5.604-11.473,11.393-17.258,17.039
		c-1.296,1.266-1.812,2.576-1.807,4.377c0.052,20.21,0.032,40.421,0.032,60.632c0,8.011-0.052,16.022,0.039,24.031
		c0.021,1.829-0.556,2.354-2.339,2.282c-3.315-0.131-6.639-0.037-9.96-0.037c-1.554,0-3.108,0-4.711,0c0-2.662,0-4.952,0-7.23
		c0.28-0.121,0.474-0.275,0.669-0.277c2.454-0.031,4.907-0.043,7.36-0.052c3.69-0.014,4.418-1.043,3.093-4.479
		c-3.683-9.56-7.347-19.126-11.141-28.641c-0.383-0.961-1.626-2.238-2.414-2.2c-0.845,0.042-1.981,1.32-2.374,2.305
		C8.611,80.133,4.919,89.762,1.2,99.38c-1.178,3.045-0.42,4.164,2.831,4.185c2.786,0.018,5.573,0.004,8.55,0.004
		c0,1.963-0.101,3.618,0.027,5.255c0.137,1.751-0.397,2.433-2.265,2.346c-3.214-0.147-6.441-0.04-9.665-0.04
		C0.678,112.823,0.678,114.187,0.678,115.551z"/>
	<path fill-rule="evenodd" clip-rule="evenodd" d="M0.678,115.551c0-1.364,0-2.728,0-4.422c3.224,0,6.45-0.107,9.665,0.04
		c1.868,0.087,2.402-0.595,2.265-2.346c-0.127-1.637-0.027-3.292-0.027-5.255c-2.977,0-5.764,0.014-8.55-0.004
		c-3.251-0.021-4.009-1.14-2.831-4.185c3.719-9.618,7.412-19.247,11.23-28.826c0.392-0.984,1.529-2.263,2.374-2.305
		c0.788-0.038,2.031,1.239,2.414,2.2c3.794,9.515,7.458,19.081,11.141,28.641c1.325,3.437,0.597,4.466-3.093,4.479
		c-2.453,0.009-4.906,0.021-7.36,0.052c-0.195,0.002-0.389,0.156-0.669,0.277c0,2.278,0,4.568,0,7.23c1.603,0,3.157,0,4.711,0
		c3.321,0,6.645-0.094,9.96,0.037c1.783,0.072,2.36-0.453,2.339-2.282c-0.091-8.009-0.039-16.021-0.039-24.031
		c0-20.211,0.02-40.421-0.032-60.632c-0.004-1.802,0.511-3.111,1.807-4.377C41.767,14.197,47.415,8.409,53.24,2.804
		c0.918-0.884,2.478-1.499,3.763-1.538c5.553-0.166,11.114-0.08,16.672-0.069c2.621,0.004,3.347,0.715,3.352,3.329
		c0.014,7.652,0.09,15.304-0.053,22.954c-0.038,2.111,0.686,2.528,2.585,2.476c4.4-0.118,8.808-0.107,13.208,0.015
		c1.053,0.029,2.308,0.438,3.099,1.111c6.211,5.279,12.367,10.625,18.437,16.067c0.712,0.64,1.115,1.983,1.118,3.002
		c0.062,21.8,0.046,43.6,0.045,65.399C77.202,115.551,38.94,115.551,0.678,115.551z M38.71,110.989c1.022,0,1.728,0,2.433,0
		c9.596,0,19.192-0.062,28.787,0.05c2.119,0.024,2.609-0.629,2.605-2.673c-0.062-33.333-0.044-66.666-0.044-99.999
		c0-0.769,0-1.538,0-2.547c-4.899,0-9.504-0.081-14.101,0.06c-1.081,0.034-2.382,0.558-3.166,1.298
		c-4.928,4.657-9.694,9.486-14.616,14.149c-1.362,1.291-1.942,2.58-1.936,4.482c0.066,20.49,0.039,40.98,0.037,61.471
		C38.709,95.064,38.71,102.85,38.71,110.989z M77.169,34.477c-0.047,0.877-0.096,1.372-0.096,1.865
		c-0.003,24.178,0.017,48.357-0.043,72.534c-0.004,1.797,0.635,2.153,2.254,2.144c9.814-0.059,19.63-0.026,29.445-0.036
		c0.624-0.001,1.247-0.103,1.92-0.162c0-3.211,0-6.261,0-9.57c-9.575,0-18.987,0-28.459,0c0-1.6,0-2.936,0-4.518
		c9.527,0,18.943,0,28.444,0c0-1.778,0-3.304,0-5.074c-9.595,0-19.01,0-28.443,0c0-1.59,0-2.93,0-4.503c9.533,0,18.954,0,28.439,0
		c0-1.773,0-3.302,0-5.07c-9.6,0-19.016,0-28.44,0c0-1.59,0-2.933,0-4.6c9.578,0,19.05,0,28.512,0c0-1.742,0-3.154,0-4.808
		c-9.574,0-18.987,0-28.511,0c0-1.642,0-3.041,0-4.753c9.579,0,19.051,0,28.479,0c0-1.73,0-3.143,0-4.775c-9.562,0-18.978,0-28.49,0
		c0-1.631,0-3.035,0-4.75c9.568,0,19.039,0,28.523,0c0-1.73,0-3.148,0-4.852c-9.583,0-19.058,0-28.45,0c0-1.692,0-3.094,0-4.771
		c9.031,0,17.89,0,27.158,0c-5.368-4.802-10.356-9.276-15.369-13.721c-0.346-0.305-0.884-0.551-1.335-0.554
		C87.597,34.462,82.485,34.477,77.169,34.477z M15.1,77.404c-0.169,0.006-0.338,0.014-0.507,0.02
		c-2.749,7.119-5.5,14.237-8.285,21.45c5.842,0,11.332,0,17.1,0C20.573,91.55,17.836,84.477,15.1,77.404z"/>
	<path fill-rule="evenodd" clip-rule="evenodd" fill="#FFFFFF" d="M77.169,34.477c5.316,0,10.428-0.015,15.538,0.024
		c0.451,0.003,0.989,0.249,1.335,0.554c5.013,4.445,10.001,8.919,15.369,13.721c-9.269,0-18.127,0-27.158,0c0,1.678,0,3.08,0,4.771
		c9.393,0,18.867,0,28.45,0c0,1.704,0,3.122,0,4.852c-9.484,0-18.955,0-28.523,0c0,1.715,0,3.12,0,4.75c9.513,0,18.929,0,28.49,0
		c0,1.633,0,3.045,0,4.775c-9.428,0-18.899,0-28.479,0c0,1.712,0,3.111,0,4.753c9.523,0,18.937,0,28.511,0c0,1.653,0,3.065,0,4.808
		c-9.462,0-18.934,0-28.512,0c0,1.667,0,3.01,0,4.6c9.425,0,18.841,0,28.44,0c0,1.769,0,3.297,0,5.07c-9.485,0-18.906,0-28.439,0
		c0,1.573,0,2.913,0,4.503c9.434,0,18.849,0,28.443,0c0,1.771,0,3.296,0,5.074c-9.501,0-18.917,0-28.444,0c0,1.582,0,2.918,0,4.518
		c9.472,0,18.884,0,28.459,0c0,3.31,0,6.359,0,9.57c-0.673,0.06-1.296,0.161-1.92,0.162c-9.815,0.01-19.631-0.022-29.445,0.036
		c-1.619,0.01-2.258-0.347-2.254-2.144c0.06-24.177,0.04-48.355,0.043-72.534C77.073,35.849,77.122,35.354,77.169,34.477z"/>
	<path fill-rule="evenodd" clip-rule="evenodd" fill="#FFFFFF" d="M15.1,77.404c2.737,7.072,5.473,14.146,8.307,21.47
		c-5.768,0-11.257,0-17.1,0c2.786-7.213,5.536-14.331,8.285-21.45C14.762,77.418,14.931,77.41,15.1,77.404z"/>
	<path fill-rule="evenodd" clip-rule="evenodd" d="M43.656,91.518c0-2.339-0.037-4.496,0.015-6.65
		c0.03-1.297,0.593-2.229,2.072-2.231c2.368-0.005,4.734-0.001,7.242-0.001c0,1.459,0,2.777,0,4.299c-1.448,0-3.09,0-4.736,0v4.584
		C46.807,91.518,45.357,91.518,43.656,91.518z"/>
	<path fill-rule="evenodd" clip-rule="evenodd" d="M58.077,91.518c0-2.339-0.037-4.496,0.015-6.65
		c0.031-1.297,0.593-2.229,2.073-2.231c2.367-0.005,4.734-0.001,7.241-0.001c0,1.459,0,2.777,0,4.299c-1.448,0-3.09,0-4.736,0v4.584
		C61.229,91.518,59.778,91.518,58.077,91.518z"/>
	<g>
		<path fill-rule="evenodd" clip-rule="evenodd" d="M43.656,72.493c0-2.339-0.037-4.495,0.015-6.65
			c0.03-1.298,0.593-2.228,2.072-2.231c2.368-0.005,4.734-0.001,7.242-0.001c0,1.459,0,2.778,0,4.298c-1.448,0-3.09,0-4.736,0v4.585
			C46.807,72.493,45.357,72.493,43.656,72.493z"/>
		<path fill-rule="evenodd" clip-rule="evenodd" d="M58.077,72.493c0-2.339-0.037-4.495,0.015-6.65
			c0.031-1.298,0.593-2.228,2.073-2.231c2.367-0.005,4.734-0.001,7.241-0.001c0,1.459,0,2.778,0,4.298c-1.448,0-3.09,0-4.736,0
			v4.585C61.229,72.493,59.778,72.493,58.077,72.493z"/>
	</g>
	<g>
		<path fill-rule="evenodd" clip-rule="evenodd" d="M43.656,53.533c0-2.339-0.037-4.496,0.015-6.65
			c0.03-1.297,0.593-2.229,2.072-2.231c2.368-0.005,4.734-0.001,7.242-0.001c0,1.459,0,2.778,0,4.299c-1.448,0-3.09,0-4.736,0v4.584
			C46.807,53.533,45.357,53.533,43.656,53.533z"/>
		<path fill-rule="evenodd" clip-rule="evenodd" d="M58.077,53.533c0-2.339-0.037-4.496,0.015-6.65
			c0.031-1.297,0.593-2.229,2.073-2.231c2.367-0.005,4.734-0.001,7.241-0.001c0,1.459,0,2.778,0,4.299c-1.448,0-3.09,0-4.736,0
			v4.584C61.229,53.533,59.778,53.533,58.077,53.533z"/>
	</g>
	<g>
		<path fill-rule="evenodd" clip-rule="evenodd" d="M43.656,34.333c0-2.339-0.037-4.496,0.015-6.65
			c0.03-1.297,0.593-2.229,2.072-2.231c2.368-0.005,4.734-0.001,7.242-0.001c0,1.459,0,2.778,0,4.299c-1.448,0-3.09,0-4.736,0v4.584
			C46.807,34.333,45.357,34.333,43.656,34.333z"/>
		<path fill-rule="evenodd" clip-rule="evenodd" d="M58.077,34.333c0-2.339-0.037-4.496,0.015-6.65
			c0.031-1.297,0.593-2.229,2.073-2.231c2.367-0.005,4.734-0.001,7.241-0.001c0,1.459,0,2.778,0,4.299c-1.448,0-3.09,0-4.736,0
			v4.584C61.229,34.333,59.778,34.333,58.077,34.333z"/>
	</g>
</g>
</svg>
