<?xml version="1.0" encoding="utf-8"?>
<!-- Generator: Adobe Illustrator 16.0.0, SVG Export Plug-In . SVG Version: 6.00 Build 0)  -->
<!DOCTYPE svg PUBLIC "-//W3C//DTD SVG 1.1//EN" "http://www.w3.org/Graphics/SVG/1.1/DTD/svg11.dtd">
<svg version="1.1" id="Layer_1" xmlns="http://www.w3.org/2000/svg" xmlns:xlink="http://www.w3.org/1999/xlink" x="0px" y="0px"
	 width="114.256px" height="114.027px" viewBox="0 0 114.256 114.027" enable-background="new 0 0 114.256 114.027"
	 xml:space="preserve">
<g>
	<path fill-rule="evenodd" clip-rule="evenodd" d="M0,64.194c0.701-4.376,4.126-4.755,7.559-5.223
		c6.314-0.86,12.619-1.806,18.933-2.678c0.945-0.131,1.489-0.522,1.916-1.4c3.189-6.543,6.444-13.055,9.652-19.591
		c0.948-1.936,2.273-3.223,4.578-3.27c2.442-0.05,3.977,1.179,5.004,3.263c3.225,6.534,6.476,13.054,9.667,19.604
		c0.404,0.834,0.897,1.248,1.799,1.373c6.27,0.881,12.538,1.783,18.804,2.703c1.41,0.205,2.844,0.383,4.204,0.785
		c3.231,0.955,4.603,4.874,2.592,7.574c-1.051,1.416-2.391,2.629-3.661,3.873c-4.316,4.226-8.642,8.447-13.013,12.617
		c-0.694,0.663-0.855,1.299-0.701,2.174c1.249,7.122,2.446,14.254,3.735,21.368c0.408,2.26-0.004,4.211-1.833,5.602
		c-1.878,1.431-3.928,1.318-5.997,0.222c-6.436-3.412-12.902-6.77-19.334-10.191c-0.782-0.416-1.354-0.42-2.138-0.003
		c-6.469,3.449-12.953,6.867-19.459,10.252c-3.246,1.688-6.495,0.537-7.51-2.699c-0.31-0.988-0.323-2.156-0.153-3.19
		c1.182-7.181,2.422-14.353,3.718-21.513c0.156-0.862-0.027-1.351-0.612-1.917c-5.031-4.863-10.018-9.775-15.068-14.621
		C1.259,67.942,0.17,66.473,0,64.455C0,64.367,0,64.281,0,64.194z M63.414,105.28c-0.068-0.622-0.085-0.969-0.143-1.306
		c-1.171-6.83-2.337-13.664-3.531-20.49c-0.156-0.895,0.073-1.5,0.748-2.15c4.919-4.729,9.79-9.51,14.673-14.277
		c0.317-0.311,0.614-0.644,0.975-1.025c-0.305-0.129-0.417-0.203-0.538-0.223c-7.073-1.042-14.143-2.111-21.225-3.089
		c-0.965-0.132-1.405-0.517-1.798-1.337c-1.587-3.328-3.243-6.621-4.873-9.926c-1.583-3.219-3.167-6.438-4.833-9.823
		c-0.325,0.604-0.582,1.048-0.807,1.504c-3.021,6.147-6.03,12.301-9.08,18.434c-0.213,0.431-0.688,0.965-1.107,1.029
		C26.439,63.445,20.992,64.205,15.548,65c-1.948,0.287-3.891,0.616-5.84,0.924c-0.07,0.12-0.142,0.238-0.215,0.357
		c0.382,0.282,0.796,0.523,1.13,0.85c4.913,4.799,9.812,9.613,14.729,14.408c0.5,0.489,0.699,0.897,0.558,1.673
		c-0.925,5.071-1.757,10.164-2.614,15.251c-0.372,2.205-0.736,4.413-1.134,6.799c0.571-0.275,0.962-0.45,1.336-0.647
		c6.103-3.215,12.212-6.412,18.29-9.672c0.789-0.424,1.378-0.396,2.126,0.01c2.854,1.555,5.735,3.062,8.609,4.58
		C56.08,101.413,59.64,103.291,63.414,105.28z"/>
	<path fill-rule="evenodd" clip-rule="evenodd" d="M114.256,50.107c-0.517,0.365-0.99,0.832-1.556,1.078
		c-2.309,1.003-4.669,1.89-6.956,2.932c-0.591,0.271-1.176,0.872-1.446,1.463c-1.083,2.365-2.005,4.803-3.08,7.17
		c-0.228,0.499-0.863,1.144-1.289,1.128c-0.456-0.016-1.066-0.654-1.292-1.161c-1.072-2.419-2.007-4.897-3.07-7.32
		c-0.214-0.49-0.706-0.989-1.192-1.207c-2.377-1.053-4.814-1.97-7.188-3.034c-0.551-0.246-1.275-0.868-1.289-1.332
		c-0.01-0.449,0.711-1.1,1.256-1.348c2.326-1.063,4.728-1.962,7.049-3.032c0.591-0.275,1.179-0.871,1.444-1.464
		c1.051-2.333,1.931-4.743,2.977-7.077c0.248-0.551,0.908-0.915,1.379-1.364c0.424,0.446,1.005,0.819,1.243,1.35
		c1.089,2.41,2.05,4.877,3.133,7.29c0.222,0.485,0.709,0.974,1.195,1.194c2.412,1.091,4.873,2.068,7.29,3.144
		c0.519,0.231,0.932,0.707,1.393,1.067C114.256,49.761,114.256,49.934,114.256,50.107z"/>
	<path fill-rule="evenodd" clip-rule="evenodd" d="M74.964,0.004c1.688-0.068,2.757,0.798,3.475,2.249
		c1.555,3.146,3.105,6.297,4.728,9.413c0.293,0.559,0.827,1.105,1.385,1.396c3.071,1.612,6.181,3.149,9.286,4.696
		c1.457,0.726,2.486,1.72,2.475,3.487c-0.012,1.766-1.066,2.739-2.519,3.458c-3.109,1.54-6.219,3.077-9.295,4.678
		c-0.519,0.271-1.014,0.785-1.287,1.307c-1.684,3.223-3.263,6.501-4.953,9.719c-1.253,2.381-3.551,2.928-5.496,1.348
		c-0.481-0.39-0.837-0.986-1.126-1.553c-1.577-3.079-3.077-6.199-4.694-9.255c-0.351-0.663-0.983-1.304-1.646-1.652
		c-2.908-1.536-5.86-2.991-8.827-4.415c-1.588-0.762-2.833-1.75-2.86-3.659c-0.023-1.922,1.228-2.934,2.8-3.701
		c2.883-1.408,5.734-2.88,8.629-4.26c0.951-0.45,1.584-1.059,2.041-2.013c1.488-3.085,3.053-6.132,4.596-9.191
		C72.428,0.558,73.333,0.002,74.964,0.004z M84.87,21.548c-0.067-0.141-0.136-0.283-0.207-0.424
		c-1.609-0.828-3.284-1.556-4.807-2.521c-0.901-0.57-1.734-1.414-2.294-2.32c-0.959-1.556-1.681-3.259-2.562-5.021
		c-0.888,1.731-1.723,3.299-2.497,4.895c-0.595,1.222-1.464,2.096-2.712,2.667c-1.559,0.711-3.068,1.53-4.772,2.39
		c1.711,0.847,3.16,1.636,4.667,2.291c1.354,0.587,2.252,1.535,2.879,2.841c0.75,1.56,1.577,3.079,2.4,4.674
		c0.132-0.196,0.258-0.318,0.313-0.464C76.959,26.016,79.684,22.537,84.87,21.548z"/>
</g>
</svg>
