<?xml version="1.0" encoding="utf-8"?>
<!-- Generator: Adobe Illustrator 16.0.0, SVG Export Plug-In . SVG Version: 6.00 Build 0)  -->
<!DOCTYPE svg PUBLIC "-//W3C//DTD SVG 1.1//EN" "http://www.w3.org/Graphics/SVG/1.1/DTD/svg11.dtd">
<svg version="1.1" id="Layer_1" xmlns="http://www.w3.org/2000/svg" xmlns:xlink="http://www.w3.org/1999/xlink" x="0px" y="0px"
	 width="189.455px" height="171.225px" viewBox="0 0 189.455 171.225" enable-background="new 0 0 189.455 171.225"
	 xml:space="preserve">
<g>
	<path fill="#00CE68" d="M154.541,19.849c-1.685-1.098-3.396-2.121-5.127-3.083c-2.433,2.961-4.845,5.909-7.231,8.831
		c6.555,3.403,12.409,7.454,17.404,12.235c2.336-2.85,4.67-5.702,7.004-8.553C162.965,25.863,158.944,22.721,154.541,19.849z"/>
	<path fill="#00CE68" d="M188.175,68.555c-2.808-14.104-8.953-25.928-18.049-35.7c-2.345,2.863-4.688,5.728-7.034,8.589
		c5.981,6.739,10.414,14.774,12.912,24.315c6.354,24.275-0.362,45.175-18.524,62.254c-11.304,10.632-25.215,16.233-40.318,18.942
		c-19.03,3.412-37.863,2.582-56.386-3.197c-1.248-0.389-1.902-0.004-2.636,0.912c-4.601,5.749-10.2,10.188-17.14,12.817
		c-0.338,0.127-0.688,0.222-1.465,0.468c3.014-6.42,4.315-12.824,4.434-19.515c0.024-1.381-0.4-2.088-1.55-2.758
		c-8.798-5.139-16.524-11.531-22.227-20.06C8.756,98.523,7.905,80.387,15.944,61.846c8.451-19.496,23.443-32.338,42.953-40.112
		c14.568-5.807,29.785-7.202,45.303-6.131c11.568,0.798,22.785,3.079,33.352,7.757c2.415-2.956,4.861-5.945,7.325-8.947
		c-9.834-4.727-20.366-7.529-31.341-9.031c-9.887-1.354-19.821-1.759-29.74-0.7C52.992,7.972,27.79,20.973,10.761,47.651
		c-6.094,9.549-9.666,20.07-10.76,31.391c-0.051,0.537-0.22,1.063-0.334,1.594c0,3.212,0,6.425,0,9.638
		C-0.22,90.808-0.052,91.338,0,91.88c0.959,9.938,4.125,19.129,9.392,27.595c5.6,9.003,12.992,16.273,21.725,22.208
		c1.083,0.736,1.533,1.455,1.166,2.705c-0.658,2.242-1.141,4.547-1.947,6.734c-2.088,5.661-6.102,9.936-10.38,14
		c-1.946,1.85-3.842,3.752-5.761,5.629c0.074,0.149,0.15,0.301,0.225,0.453c3.676,0,7.352-0.062,11.026,0.01
		c14.16,0.277,26.328-4.504,36.615-14.213c0.508-0.48,1.577-0.774,2.251-0.609c11.586,2.849,23.337,3.982,35.248,3.594
		c16.472-0.534,32.377-3.614,47.127-11.217c21.332-10.994,35.565-27.797,41.078-51.456c0.795-3.404,1.141-6.916,1.69-10.377
		c0-3.335,0-6.671,0-10.007C189.034,74.135,188.726,71.322,188.175,68.555z"/>
</g>
<path fill="#00CE68" d="M159.481,4.332c-6.289,7.514-12.601,15.236-18.703,22.705c-2.028,2.483-4.059,4.968-6.092,7.448
	l-5.225,6.378c-9.074,11.077-18.459,22.531-27.648,33.826L87.835,91.259L83.8,86.767c-1.511-1.676-2.999-3.328-4.47-4.996
	c-1.258-1.427-2.519-2.849-3.78-4.271c-3.577-4.035-7.276-8.208-10.829-12.402c-3.303-3.896-6.651-5.712-10.54-5.712
	c-0.786,0-1.609,0.076-2.449,0.226c-4.151,0.741-6.894,2.863-8.386,6.486c-1.302,3.161-0.633,6.027,2.167,9.292
	c3.089,3.604,6.3,7.219,9.405,10.717l1.265,1.425c8.987,10.135,17.983,20.261,26.984,30.383c1.655,1.859,3.323,3.709,4.994,5.563
	l0.622,0.69l1.061-1.297c5.931-7.243,11.859-14.485,17.757-21.757l3.532-4.372c5.454-6.634,10.871-13.269,16.29-19.902
	c3.417-4.187,6.835-8.371,10.258-12.551c5.036-6.149,10.077-12.295,15.117-18.441c8.328-10.154,16.656-20.309,24.965-30.48
	c1.991-2.438,2.61-4.782,1.948-7.375c-1.032-4.057-3.677-6.537-8.082-7.588C166.781-0.752,162.62,0.584,159.481,4.332z"/>
</svg>
