<?xml version="1.0" encoding="utf-8"?>
<!-- Generator: Adobe Illustrator 16.0.0, SVG Export Plug-In . SVG Version: 6.00 Build 0)  -->
<!DOCTYPE svg PUBLIC "-//W3C//DTD SVG 1.1//EN" "http://www.w3.org/Graphics/SVG/1.1/DTD/svg11.dtd">
<svg version="1.1" id="Layer_1" xmlns="http://www.w3.org/2000/svg" xmlns:xlink="http://www.w3.org/1999/xlink" x="0px" y="0px"
	 width="143.41px" height="114.027px" viewBox="0 0 143.41 114.027" enable-background="new 0 0 143.41 114.027"
	 xml:space="preserve">
<g>
	<path fill-rule="evenodd" clip-rule="evenodd" d="M14.042,78.998c0-1.842,0-3.686,0-5.529c0.067-0.205,0.174-0.406,0.198-0.617
		c0.703-6.187,2.682-12.021,4.79-17.837c1.881-5.182,3.799-10.366,5.319-15.658c1.387-4.827,2.15-9.828,3.396-14.7
		c1.404-5.483,3.587-10.708,7.384-14.963c8.398-9.411,19.129-11.789,31.11-9.492c6.29,1.207,11.396,4.906,16.216,8.883
		c6.035,4.981,12.133,9.776,19.496,12.758c5.352,2.168,10.758,4.323,15.498,7.718c4.566,3.271,8.396,7.215,10.174,12.713
		c0.734,2.274,1.172,4.644,1.742,6.972c0,1.667,0,3.334,0,5.002c-0.076,0.382-0.186,0.761-0.225,1.147
		c-0.434,4.466-1.787,8.646-3.969,12.554c-3.006,5.377-7.379,9.348-12.885,11.995c-3.348,1.608-6.816,2.988-10.299,4.288
		c-5.201,1.941-10.273,4.086-14.475,7.829c-2.686,2.391-5.205,4.964-7.914,7.327c-3.729,3.256-7.408,6.598-11.391,9.519
		c-5.882,4.316-12.593,6.31-19.928,5.587c-7.221-0.712-13.604-3.568-19.205-8.137c-6.896-5.623-11.601-12.72-13.912-21.33
		C14.636,83.059,14.41,81.01,14.042,78.998z M59.137,10.176c-1.263,0.123-2.534,0.195-3.79,0.377
		c-5.754,0.829-10.454,3.33-13.525,8.478c-2.114,3.543-3.446,7.379-4.313,11.37c-1.558,7.18-2.925,14.398-5.534,21.312
		c-1.901,5.036-3.706,10.111-5.381,15.227c-1.731,5.289-2.336,10.68-0.679,16.145c1.402,4.625,3.849,8.655,7.156,12.115
		c4.598,4.808,10.134,7.92,16.876,8.494c5.216,0.444,9.685-1.67,13.537-4.818c4.744-3.875,9.259-8.053,13.67-12.309
		c5.396-5.201,11.553-9.039,18.574-11.622c4.184-1.539,8.334-3.228,12.352-5.149c8.15-3.893,11.266-13.481,10.137-20.94
		c-0.73-4.819-3.551-8.337-7.596-10.665c-4.084-2.351-8.428-4.272-12.729-6.223c-5.398-2.449-10.74-4.953-15.395-8.712
		c-3.512-2.837-6.992-5.719-10.617-8.406C68.125,12.065,63.988,10.122,59.137,10.176z"/>
	<path fill-rule="evenodd" clip-rule="evenodd" d="M89.674,53.467c-0.018,13.85-11.422,25.266-25.172,25.197
		c-13.881-0.068-25.162-11.361-25.188-25.21C39.288,39.6,50.797,28.083,64.577,28.176C78.436,28.271,89.693,39.612,89.674,53.467z
		 M48.283,53.042c-0.029,1.724,0.815,3.151,2.192,3.698c1.39,0.553,3.2,0.326,3.957-0.827c0.616-0.938,1.046-2.133,1.147-3.253
		c0.396-4.368,3.936-7.894,8.324-8.195c0.884-0.061,1.852-0.283,2.596-0.738c1.459-0.893,1.92-2.557,1.393-4.156
		c-0.464-1.413-1.891-2.427-3.565-2.398C55.736,37.323,48.531,44.127,48.283,53.042z"/>
</g>
</svg>
