<?xml version="1.0" encoding="utf-8"?>
<!-- Generator: Adobe Illustrator 16.0.0, SVG Export Plug-In . SVG Version: 6.00 Build 0)  -->
<!DOCTYPE svg PUBLIC "-//W3C//DTD SVG 1.1//EN" "http://www.w3.org/Graphics/SVG/1.1/DTD/svg11.dtd">
<svg version="1.1" id="Layer_1" xmlns="http://www.w3.org/2000/svg" xmlns:xlink="http://www.w3.org/1999/xlink" x="0px" y="0px"
	 width="141.73px" height="85.04px" viewBox="0 0 141.73 85.04" enable-background="new 0 0 141.73 85.04" xml:space="preserve">
<g>
	<polygon fill-rule="evenodd" clip-rule="evenodd" fill="#A1A1A1" points="81.432,60.9 81.432,60.898 81.432,60.9 	"/>
	<polygon fill-rule="evenodd" clip-rule="evenodd" fill="#A1A1A1" points="41.637,5.474 41.637,5.473 41.637,5.474 	"/>
	<polygon fill-rule="evenodd" clip-rule="evenodd" fill="#A1A1A1" points="41.827,60.9 41.827,60.898 41.827,60.9 	"/>
	<path fill-rule="evenodd" clip-rule="evenodd" fill="#A1A1A1" d="M79.771,84.893c0.73,0.057,1.474,0.075,2.213,0.079h0.932
		c1.52,0,3.041-0.007,4.559-0.013c1.523-0.004,3.045-0.01,4.568-0.01c3.26,0,5.772,0.026,8.147,0.088l0.237,0.003
		c3.882,0,6.84-2.338,6.883-5.438c0.076-5.697,0.078-11.787,0.003-18.616c-0.025-2.77-2.572-5.086-5.799-5.275
		c-0.969-0.056-1.941-0.067-2.916-0.067L96.25,55.65l-0.83-0.004c-0.273-0.003-0.548-0.018-0.849-0.034l-1.209-0.058l-0.008-12.299
		c-0.001-1.955-0.563-3.014-3.521-3.014H53.675l0.003-9.538c0.003-0.151,0.022-0.285,0.048-0.448l0.117-0.889h0.673
		c0.62,0,1.237-0.007,1.854-0.016c1.384-0.019,2.749-0.038,4.109,0.037c3.948,0.207,6.872-1.976,7.137-5.304
		c0.092-1.174,0.08-2.391,0.069-3.568l-0.007-1.202l0.004-2.01c0.011-3.795,0.02-7.589-0.01-11.382
		c-0.03-3.436-2.518-5.783-6.191-5.841c-6.962-0.112-13.929-0.106-20.892,0c-3.565,0.054-6.098,2.247-6.157,5.331
		c-0.093,4.883-0.051,9.859-0.011,14.671l0.033,4.243c0.007,1.117,0.526,2.153,1.633,3.265c1.224,1.224,2.887,1.77,5.389,1.77
		l3.033-0.004l3.79,0.001v10.12l0.081,6.102l-0.003,8.73c0,0.146-0.024,0.296-0.06,0.483l-0.146,0.859l-4.75-0.017
		c-0.828,0-1.657,0.006-2.483,0.026c-3.889,0.093-6.441,2.198-6.507,5.361c-0.106,5.475-0.09,11.338,0.052,19.008
		c0.04,2.197,2.092,4.283,4.672,4.75c0.902,0.164,1.882,0.18,2.807,0.183c3.209,0.01,6.421,0.011,9.631,0.011l7.881-0.001
		c0.277,0,0.561,0.013,0.841,0.026c0.513,0.024,1.026,0.054,1.515-0.028c4.086-0.691,5.837-2.564,5.849-6.263
		c0.017-5.677,0.023-11.346-0.017-17.02c-0.008-0.871-0.15-1.7-0.419-2.396c-0.865-2.233-3.164-3.594-6.152-3.635
		c-0.891-0.014-1.78-0.019-2.669-0.019l-4.655,0.01V44.821H87.98V55.65l-5.216-0.005c-0.902,0-1.969,0.011-3.04,0.083
		c-3.148,0.22-5.628,2.547-5.645,5.299c-0.041,6.574-0.037,12.667,0.013,18.624C74.116,82.392,76.556,84.645,79.771,84.893z
		 M41.476,25.06c-0.453,0-1.104-0.054-1.557-0.515c-0.325-0.326-0.478-0.781-0.471-1.391c0.026-2.021,0.023-4.04,0.019-6.063
		l-0.012-2.19l0.005-2.322c0.007-1.94,0.015-3.882-0.021-5.82c-0.009-0.425,0.033-1.044,0.483-1.504
		c0.475-0.483,1.166-0.544,1.715-0.544h0.018c2.612,0.014,5.226,0.018,7.835,0.018l10.458-0.012c1.68,0,2.24,0.3,2.244,2.07
		c0,5.341,0,10.679,0.011,16.014c0,1.799-0.433,2.213-2.312,2.222c-2.65,0.008-5.302,0.011-7.953,0.016
		C48.451,25.039,44.962,25.043,41.476,25.06z M60.139,60.142c1.679,0,2.239,0.3,2.244,2.069c0,5.341,0,10.68,0.011,16.015
		c0,1.798-0.433,2.213-2.312,2.222c-2.654,0.008-5.306,0.011-7.957,0.015c-3.486,0.003-6.973,0.008-10.458,0.024
		c-0.454,0-1.104-0.054-1.558-0.515c-0.324-0.327-0.477-0.781-0.471-1.392c0.026-2.021,0.023-4.039,0.02-6.063l-0.012-2.19
		l0.004-2.323c0.008-1.94,0.015-3.882-0.021-5.82c-0.009-0.423,0.032-1.043,0.483-1.504c0.474-0.483,1.166-0.545,1.714-0.545h0.019
		c2.612,0.014,5.224,0.019,7.834,0.019L60.139,60.142z M79.717,60.68c0.475-0.483,1.166-0.545,1.715-0.545h0.018
		c2.612,0.014,5.224,0.019,7.835,0.019l10.458-0.012c1.68,0,2.24,0.3,2.244,2.069c0,5.341,0,10.68,0.011,16.015
		c0,1.798-0.433,2.213-2.312,2.222c-2.654,0.008-5.305,0.011-7.956,0.015c-3.486,0.003-6.973,0.008-10.459,0.024
		c-0.453,0-1.104-0.054-1.557-0.515c-0.325-0.327-0.478-0.781-0.472-1.392c0.027-2.021,0.024-4.039,0.02-6.063l-0.012-2.19
		l0.005-2.323c0.007-1.94,0.015-3.882-0.021-5.82C79.225,61.761,79.267,61.141,79.717,60.68z"/>
</g>
</svg>
