<?xml version="1.0" encoding="utf-8"?>
<!-- Generator: Adobe Illustrator 16.0.0, SVG Export Plug-In . SVG Version: 6.00 Build 0)  -->
<!DOCTYPE svg PUBLIC "-//W3C//DTD SVG 1.1//EN" "http://www.w3.org/Graphics/SVG/1.1/DTD/svg11.dtd">
<svg version="1.1" id="Layer_1" xmlns="http://www.w3.org/2000/svg" xmlns:xlink="http://www.w3.org/1999/xlink" x="0px" y="0px"
	 width="143.41px" height="114.027px" viewBox="0 0 143.41 114.027" enable-background="new 0 0 143.41 114.027"
	 xml:space="preserve">
<g>
	<path fill-rule="evenodd" clip-rule="evenodd" d="M109.175,114.037c1.691-3.293,3.132-6.223,4.723-9.066
		c0.257-0.464,1.173-0.751,1.802-0.781c2.044-0.095,4.096-0.014,6.144-0.04c2.516-0.032,4.314-1.541,4.296-3.979
		c-0.087-11.402,0.588-22.9-0.675-34.178c-1.336-11.936-8.71-20.479-19.967-24.896c-4.179-1.64-8.923-1.867-13.426-2.643
		c-1.953-0.336-2.723,0.643-2.71,2.643c0.064,8.925,0.029,17.851,0.024,26.776c-0.002,3.054-0.028,2.943-2.966,3.471
		c-2.343,0.42-4.631,1.148-7.228,1.813c0-0.786,0-1.488,0-2.19c0-11.486-0.002-22.974,0.002-34.46c0.001-5.309,2.6-7.91,7.892-7.969
		c7.308-0.08,14.607-0.267,21.578,2.609c4.703,1.94,9.089,4.338,12.861,7.796c2.555,2.341,2.558,2.301,5.251,0.316
		c5.728-4.222,7.389-10.689,6.141-16.718c-1.357-6.555-7.008-11.668-13.38-12.648c-0.858-0.132-1.751-0.064-2.627-0.064
		c-15.877-0.003-31.753,0.01-47.629-0.01c-7.677-0.01-14.346,5.298-15.954,12.773c-4.343,20.177-8.687,40.353-13.021,60.532
		c-0.18,0.84-0.26,1.702-0.431,2.857c1.319,0.067,2.447,0.16,3.577,0.174c2.269,0.027,4.537-0.033,6.805,0.023
		c3.628,0.09,6.536,2.933,6.588,6.557c0.072,5.047,0.08,10.097-0.006,15.144c-0.064,3.815-2.773,6.391-6.609,6.395
		c-15.512,0.018-31.021,0.013-46.533,0.003c-2.513-0.002-3.356-0.944-3.571-3.378c-0.679-7.759,1.336-14.46,7.398-19.677
		c3.747-3.226,8.117-4.83,13.009-5.037c2.264-0.096,4.537-0.066,6.804-0.008c1.406,0.036,1.988-0.449,2.301-1.929
		c4.47-21.114,8.893-42.238,13.609-63.296C45.871,9.233,53.454,2.245,65.202-0.205c0.564-0.118,1.161-0.118,1.743-0.118
		c17.119-0.009,34.24-0.078,51.36,0.008c13.085,0.065,24.665,11.838,25.086,24.85c0.328,10.161-3.507,18.005-11.812,23.734
		c-1.081,0.746-1.111,1.469-0.515,2.569c3.7,6.819,5.36,14.116,5.263,21.884c-0.116,9.291-0.018,18.583-0.034,27.875
		c-0.013,7.5-6.193,13.677-13.656,13.683c-3.658,0.003-7.316,0.015-10.975-0.008C110.894,114.266,110.127,114.131,109.175,114.037z
		 M46.695,104.015c0-2.117-0.085-3.946,0.024-5.764c0.096-1.575-0.558-1.998-2.041-1.988c-7.825,0.053-15.653-0.091-23.477,0.073
		c-4.011,0.085-7.336,1.847-9.405,5.473c-0.356,0.623-0.479,1.379-0.753,2.206C23.065,104.015,34.733,104.015,46.695,104.015z"/>
	<path fill-rule="evenodd" clip-rule="evenodd" d="M107.345,96.562c0.814,8.411-7.097,17.524-16.969,17.815
		c-10.044,0.297-18.258-8.159-18.314-17.72c-0.054-9.23,8.255-17.734,17.67-17.725C99.883,78.942,108.068,88.1,107.345,96.562z
		 M89.87,100.608c2.013-0.046,3.894-2.064,3.797-4.076c-0.096-1.972-1.963-3.77-3.888-3.743c-2.038,0.029-3.983,1.979-3.941,3.95
		C85.881,98.762,87.852,100.652,89.87,100.608z"/>
</g>
</svg>
