<?xml version="1.0" encoding="utf-8"?>
<!-- Generator: Adobe Illustrator 16.0.0, SVG Export Plug-In . SVG Version: 6.00 Build 0)  -->
<!DOCTYPE svg PUBLIC "-//W3C//DTD SVG 1.1//EN" "http://www.w3.org/Graphics/SVG/1.1/DTD/svg11.dtd">
<svg version="1.1" id="Layer_1" xmlns="http://www.w3.org/2000/svg" xmlns:xlink="http://www.w3.org/1999/xlink" x="0px" y="0px"
	 width="141.73px" height="85.04px" viewBox="0 0 141.73 85.04" enable-background="new 0 0 141.73 85.04" xml:space="preserve">
<g>
	<path fill-rule="evenodd" clip-rule="evenodd" fill="#A1A1A1" d="M78.422,351.638c0.047-0.021,0.125-0.031,0.139-0.066
		c0.363-0.889,1.1-1.119,1.968-1.119c3.523,0,7.046,0,10.571,0c0.219,0,0.439,0,0.728,0c0.01-0.223,0.026-0.417,0.028-0.609
		c0.002-1.309-0.002-2.622,0.002-3.929c0.002-1.482,0.627-2.104,2.127-2.104c3.468-0.002,6.937,0,10.406,0c0.221,0,0.44,0,0.725,0
		c0.012-0.225,0.025-0.422,0.027-0.614c0.003-1.327-0.002-2.655,0.003-3.985c0.005-1.407,0.649-2.045,2.073-2.045
		c3.486-0.002,6.974,0,10.459,0c0.221,0,0.441,0,0.728,0c0.009-0.226,0.023-0.42,0.025-0.612c0.005-1.349,0.007-2.697-0.002-4.044
		c-0.003-1.074,0.483-1.994,1.956-1.989c4.243,0.007,8.486-0.007,12.732,0.005c1.18,0.005,1.527,0.31,2,1.623
		c0,8.857,0,17.719,0,26.576c-0.228,0.417-0.434,0.849-0.691,1.242c-0.117,0.179-0.348,0.281-0.525,0.418
		c-18.088,0-36.172,0-54.259,0c-0.567-0.246-0.959-0.666-1.22-1.217C78.422,356.657,78.422,354.145,78.422,351.638z
		 M121.729,357.034c3.385,0,6.713,0,10.039,0c0-7.759,0-15.479,0-23.197c-3.365,0-6.693,0-10.039,0
		C121.729,341.581,121.729,349.289,121.729,357.034z M118.387,340.483c-3.346,0-6.636,0-9.924,0c0,5.541,0,11.046,0,16.546
		c3.326,0,6.616,0,9.924,0C118.387,351.501,118.387,346.013,118.387,340.483z M105.096,347.129c-3.345,0-6.633,0-9.919,0
		c0,3.326,0,6.612,0,9.9c3.323,0,6.612,0,9.919,0C105.096,353.718,105.096,350.443,105.096,347.129z M91.799,353.776
		c-3.371,0-6.696,0-10.011,0c0,1.117,0,2.193,0,3.258c3.356,0,6.673,0,10.011,0C91.799,355.941,91.799,354.882,91.799,353.776z"/>
	<path fill-rule="evenodd" clip-rule="evenodd" fill="#A1A1A1" d="M125.707,303.691c0.134,0.107,0.256,0.231,0.398,0.328
		c0.441,0.295,0.734,0.692,0.706,1.233c-0.089,1.76-0.199,3.521-0.316,5.277c-0.03,0.428,0.005,0.75,0.401,1.047
		c1.293,0.973,2.547,1.996,3.816,3.002c0.978,0.773,1.213,1.754,0.494,2.496c-0.33,0.342-0.865,0.529-1.342,0.661
		c-1.547,0.432-3.112,0.793-4.662,1.216c-0.197,0.051-0.423,0.267-0.5,0.459c-0.631,1.623-1.241,3.254-1.836,4.889
		c-0.235,0.646-0.646,1.092-1.321,1.186c-0.723,0.1-1.273-0.243-1.661-0.859c-0.928-1.48-1.855-2.959-2.795-4.43
		c-0.097-0.147-0.282-0.312-0.437-0.326c-0.826-0.064-1.653-0.094-2.481-0.123c-1.065-0.041-2.135-0.055-3.197-0.12
		c-0.602-0.038-0.995-0.423-1.26-0.946c-0.333-0.653-0.117-1.226,0.293-1.732c1.051-1.305,2.104-2.604,3.213-3.861
		c0.366-0.41,0.359-0.746,0.221-1.217c-0.485-1.648-0.926-3.31-1.389-4.966c-0.186-0.652,0.097-1.134,0.563-1.55
		c0.458-0.406,0.995-0.477,1.536-0.27c1.64,0.628,3.272,1.287,4.905,1.945c0.321,0.127,0.581,0.164,0.9-0.049
		c1.591-1.063,3.199-2.104,4.796-3.152c0.038-0.023,0.045-0.094,0.066-0.138C125.115,303.691,125.412,303.691,125.707,303.691z
		 M123.966,307.388c-1.146,0.771-2.11,1.413-3.069,2.065c-0.701,0.474-1.4,0.637-2.219,0.255c-0.854-0.4-1.744-0.72-2.619-1.059
		c-0.213-0.085-0.442-0.123-0.823-0.225c0.229,0.846,0.347,1.586,0.633,2.253c0.737,1.732,0.43,3.165-0.975,4.433
		c-0.553,0.502-0.962,1.157-1.436,1.743c0.028,0.078,0.051,0.158,0.073,0.238c1.073,0,2.145,0.004,3.215,0
		c1.02-0.006,1.813,0.353,2.343,1.283c0.478,0.838,1.022,1.636,1.547,2.449c0.096,0.148,0.233,0.274,0.415,0.479
		c0.418-1.113,0.85-2.093,1.152-3.113c0.33-1.122,1.01-1.732,2.158-1.906c0.493-0.068,0.97-0.248,1.455-0.37
		c0.529-0.142,1.063-0.281,1.763-0.463c-1.068-0.843-1.962-1.58-2.89-2.271c-0.701-0.523-0.984-1.174-0.914-2.045
		C123.868,309.96,123.899,308.783,123.966,307.388z"/>
	<path fill-rule="evenodd" clip-rule="evenodd" fill="#A1A1A1" d="M133.9,360.384c0.178-0.137,0.408-0.239,0.525-0.418
		c0.258-0.394,0.464-0.825,0.691-1.242c0,0.553,0,1.107,0,1.66C134.715,360.384,134.309,360.384,133.9,360.384z"/>
	<path fill-rule="evenodd" clip-rule="evenodd" fill="#A1A1A1" d="M78.422,359.167c0.261,0.551,0.652,0.971,1.22,1.217
		c-0.408,0-0.813,0-1.22,0C78.422,359.978,78.422,359.572,78.422,359.167z"/>
	<path fill-rule="evenodd" clip-rule="evenodd" fill="#A1A1A1" d="M93.371,337.115c-1.107,0-2.215-0.028-3.32,0.01
		c-0.893,0.028-1.406,0.537-1.563,1.407c-0.06,0.324-0.115,0.656-0.247,0.952c-0.297,0.669-1.016,0.999-1.742,0.856
		c-0.659-0.131-1.147-0.692-1.218-1.396c-0.216-2.105,1.476-4.414,3.634-4.901c0.549-0.124,1.123-0.183,1.686-0.192
		c1.865-0.021,3.73-0.047,5.593,0.005c1.747,0.044,2.271-0.563,2.38-2.214c0.15-2.267,2.17-4.289,4.434-4.359
		c2.283-0.07,4.572-0.056,6.857-0.084c1.003-0.014,1.585-0.356,1.826-1.111c0.097-0.293,0.113-0.61,0.176-0.915
		c0.158-0.767,0.854-1.288,1.654-1.239c0.771,0.048,1.381,0.637,1.451,1.403c0.226,2.433-1.956,4.964-4.389,5.034
		c-2.229,0.061-4.461,0.111-6.689,0.063c-1.668-0.035-2.139,0.756-2.209,2.153c-0.115,2.229-2.193,4.36-4.391,4.427
		c-1.307,0.037-2.613,0.007-3.922,0.007C93.371,337.05,93.371,337.083,93.371,337.115z"/>
</g>
<g>
	<path fill-rule="evenodd" clip-rule="evenodd" fill="#A1A1A1" d="M89.144,85.04c-4.644-9.012-8.423-16.345-12.041-23.372
		c6.492-3.679,12.715-7.207,19.332-10.954c3.657,7.148,7.647,14.951,12.361,24.16c-5.558-1.197-9.413-2.027-13.872-2.991
		C93.262,75.666,91.599,79.457,89.144,85.04z"/>
	<path fill-rule="evenodd" clip-rule="evenodd" fill="#A1A1A1" d="M64.499,61.647c-3.53,6.813-7.362,14.227-11.982,23.153
		c-2.393-5.248-4.024-8.825-5.813-12.748c-4.034,0.836-8.053,1.665-13.77,2.854c4.608-9.15,8.514-16.906,12.173-24.165
		C51.688,54.44,57.834,57.9,64.499,61.647z"/>
	<path fill-rule="evenodd" clip-rule="evenodd" fill="#A1A1A1" d="M70.684,0C55.628,0,43.405,12.269,43.314,27.47
		c-0.094,15.483,12.196,27.848,27.609,27.779c15.11-0.063,27.362-12.311,27.453-27.433C98.466,12.454,86.067,0,70.684,0z
		 M87.184,24.868c-0.378,0.44-0.826,0.813-1.23,1.225c-2.048,2.048-5.13,3.794-5.855,6.237c-0.776,2.629,0.649,5.909,1.112,8.91
		c0.129,0.847,0.246,1.688,0.416,2.985c-3.236-1.691-6.132-3.129-8.938-4.727c-1.293-0.734-2.298-0.729-3.581,0.012
		c-2.81,1.597-5.728,3.023-9.038,4.764c0.602-3.513,1.049-6.563,1.677-9.576c0.356-1.714,0.069-2.938-1.31-4.179
		c-2.294-2.07-4.343-4.417-6.739-6.898c3.487-0.516,6.686-1.09,9.906-1.419c1.449-0.149,2.167-0.746,2.747-1.997
		c1.356-2.954,2.848-5.85,4.519-9.23c0.989,1.954,1.819,3.577,2.64,5.19c0.485,0.975,1.049,1.927,1.405,2.943
		c0.724,2.022,1.857,3.141,4.226,3.247c2.874,0.144,5.729,0.787,8.853,1.25C87.673,24.122,87.471,24.537,87.184,24.868z"/>
</g>
</svg>
