<?xml version="1.0" encoding="utf-8"?>
<!-- Generator: Adobe Illustrator 16.0.0, SVG Export Plug-In . SVG Version: 6.00 Build 0)  -->
<!DOCTYPE svg PUBLIC "-//W3C//DTD SVG 1.1//EN" "http://www.w3.org/Graphics/SVG/1.1/DTD/svg11.dtd">
<svg version="1.1" id="Layer_1" xmlns="http://www.w3.org/2000/svg" xmlns:xlink="http://www.w3.org/1999/xlink" x="0px" y="0px"
	 width="141.73px" height="85.04px" viewBox="0 0 141.73 85.04" enable-background="new 0 0 141.73 85.04" xml:space="preserve">
<g>
	<path fill-rule="evenodd" clip-rule="evenodd" fill="#A1A1A1" d="M125.969,70.936c0.005-22.359,0.005-44.719,0-67.081
		c0-3.309-0.544-3.848-3.88-3.849L73.392,0L19.554,0.007c-3.22,0-3.786,0.554-3.786,3.706c-0.012,22.44-0.012,44.88-0.004,67.321
		c0.003,3.321,0.512,3.822,3.888,3.824l15.69,0.001h23.482l-0.891,2.148c-0.355,0.861-0.65,1.693-0.928,2.62
		c-0.33,1.112-1.203,2.519-2.407,3.142c-1.401,0.718-1.304,1.049-1.168,1.505c0.12,0.402,0.215,0.72,1.925,0.72
		c5.004-0.014,9.94-0.017,14.877-0.017l14.39,0.001c0.32,0,0.648,0.019,0.977,0.035c0.641,0.036,1.287,0.049,1.632-0.063
		c0.398-0.13,0.869-0.534,0.951-0.721c0.028-0.149-0.04-0.569-0.13-0.795c-2.75-1.634-3.517-4.384-4.138-6.604l-0.55-1.973
		l38.585-0.001C125.481,74.858,125.969,74.381,125.969,70.936z M19.521,68.343V3.657h102.236v64.686H19.521z"/>
	<path fill-rule="evenodd" clip-rule="evenodd" fill="#A1A1A1" d="M33.371,27.86h10.74c1.291,0,2.341-1.096,2.341-2.449v-9.683
		c0-1.354-1.05-2.449-2.341-2.449h-10.74c-1.292,0-2.342,1.096-2.342,2.449v9.683C31.029,26.764,32.079,27.86,33.371,27.86z"/>
	<path fill-rule="evenodd" clip-rule="evenodd" fill="#A1A1A1" d="M65.501,27.86h10.732c1.293,0,2.342-1.096,2.342-2.449v-9.683
		c0-1.354-1.049-2.449-2.342-2.449H65.501c-1.299,0-2.341,1.096-2.341,2.449v9.683C63.16,26.764,64.202,27.86,65.501,27.86z"/>
	<path fill-rule="evenodd" clip-rule="evenodd" fill="#A1A1A1" d="M97.625,27.86h10.732c1.292,0,2.342-1.096,2.342-2.449v-9.683
		c0-1.354-1.05-2.449-2.342-2.449H97.625c-1.292,0-2.34,1.096-2.34,2.449v9.683C95.285,26.764,96.333,27.86,97.625,27.86z"/>
	<path fill-rule="evenodd" clip-rule="evenodd" fill="#A1A1A1" d="M33.371,56.085h10.74c1.291,0,2.341-1.093,2.341-2.447v-9.686
		c0-1.35-1.05-2.447-2.341-2.447h-10.74c-1.292,0-2.342,1.097-2.342,2.447v9.686C31.029,54.992,32.079,56.085,33.371,56.085z"/>
	<path fill-rule="evenodd" clip-rule="evenodd" fill="#A1A1A1" d="M65.501,56.085h10.732c1.293,0,2.342-1.093,2.342-2.447v-9.686
		c0-1.35-1.049-2.447-2.342-2.447H65.501c-1.299,0-2.341,1.097-2.341,2.447v9.686C63.16,54.992,64.202,56.085,65.501,56.085z"/>
	<path fill-rule="evenodd" clip-rule="evenodd" fill="#A1A1A1" d="M97.625,56.085h10.732c1.292,0,2.342-1.093,2.342-2.447v-9.686
		c0-1.35-1.05-2.447-2.342-2.447H97.625c-1.292,0-2.34,1.097-2.34,2.447v9.686C95.285,54.992,96.333,56.085,97.625,56.085z"/>
</g>
</svg>
