<?xml version="1.0" encoding="utf-8"?>
<!-- Generator: Adobe Illustrator 16.0.0, SVG Export Plug-In . SVG Version: 6.00 Build 0)  -->
<!DOCTYPE svg PUBLIC "-//W3C//DTD SVG 1.1//EN" "http://www.w3.org/Graphics/SVG/1.1/DTD/svg11.dtd">
<svg version="1.1" id="Layer_1" xmlns="http://www.w3.org/2000/svg" xmlns:xlink="http://www.w3.org/1999/xlink" x="0px" y="0px"
	 width="141.73px" height="85.04px" viewBox="0 0 141.73 85.04" enable-background="new 0 0 141.73 85.04" xml:space="preserve">
<g>
	<path fill-rule="evenodd" clip-rule="evenodd" fill="#A1A1A1" d="M78.422,351.638c0.047-0.021,0.125-0.031,0.139-0.066
		c0.363-0.889,1.1-1.119,1.968-1.119c3.523,0,7.046,0,10.571,0c0.219,0,0.439,0,0.728,0c0.01-0.223,0.026-0.417,0.028-0.609
		c0.002-1.309-0.002-2.622,0.002-3.929c0.002-1.482,0.627-2.104,2.127-2.104c3.468-0.002,6.937,0,10.406,0c0.221,0,0.44,0,0.725,0
		c0.012-0.225,0.025-0.422,0.027-0.614c0.003-1.327-0.002-2.655,0.003-3.985c0.005-1.407,0.649-2.045,2.073-2.045
		c3.486-0.002,6.974,0,10.459,0c0.221,0,0.441,0,0.728,0c0.009-0.226,0.023-0.42,0.025-0.612c0.005-1.349,0.007-2.697-0.002-4.044
		c-0.003-1.074,0.483-1.994,1.956-1.989c4.243,0.007,8.486-0.007,12.732,0.005c1.18,0.005,1.527,0.31,2,1.623
		c0,8.857,0,17.719,0,26.576c-0.228,0.417-0.434,0.849-0.691,1.242c-0.117,0.179-0.348,0.281-0.525,0.418
		c-18.088,0-36.172,0-54.259,0c-0.567-0.246-0.959-0.666-1.22-1.217C78.422,356.657,78.422,354.145,78.422,351.638z
		 M121.729,357.034c3.385,0,6.713,0,10.039,0c0-7.759,0-15.479,0-23.197c-3.365,0-6.693,0-10.039,0
		C121.729,341.581,121.729,349.289,121.729,357.034z M118.387,340.483c-3.346,0-6.636,0-9.924,0c0,5.541,0,11.046,0,16.546
		c3.326,0,6.616,0,9.924,0C118.387,351.501,118.387,346.013,118.387,340.483z M105.096,347.129c-3.345,0-6.633,0-9.919,0
		c0,3.326,0,6.612,0,9.9c3.323,0,6.612,0,9.919,0C105.096,353.718,105.096,350.443,105.096,347.129z M91.799,353.776
		c-3.371,0-6.696,0-10.011,0c0,1.117,0,2.193,0,3.258c3.356,0,6.673,0,10.011,0C91.799,355.941,91.799,354.882,91.799,353.776z"/>
	<path fill-rule="evenodd" clip-rule="evenodd" fill="#A1A1A1" d="M125.707,303.691c0.134,0.107,0.256,0.231,0.398,0.328
		c0.441,0.295,0.734,0.692,0.706,1.233c-0.089,1.76-0.199,3.521-0.316,5.277c-0.03,0.428,0.005,0.75,0.401,1.047
		c1.293,0.973,2.547,1.996,3.816,3.002c0.978,0.773,1.213,1.754,0.494,2.496c-0.33,0.342-0.865,0.529-1.342,0.661
		c-1.547,0.432-3.112,0.793-4.662,1.216c-0.197,0.051-0.423,0.267-0.5,0.459c-0.631,1.623-1.241,3.254-1.836,4.889
		c-0.235,0.646-0.646,1.092-1.321,1.186c-0.723,0.1-1.273-0.243-1.661-0.859c-0.928-1.48-1.855-2.959-2.795-4.43
		c-0.097-0.147-0.282-0.312-0.437-0.326c-0.826-0.064-1.653-0.094-2.481-0.123c-1.065-0.041-2.135-0.055-3.197-0.12
		c-0.602-0.038-0.995-0.423-1.26-0.946c-0.333-0.653-0.117-1.226,0.293-1.732c1.051-1.305,2.104-2.604,3.213-3.861
		c0.366-0.41,0.359-0.746,0.221-1.217c-0.485-1.648-0.926-3.31-1.389-4.966c-0.186-0.652,0.097-1.134,0.563-1.55
		c0.458-0.406,0.995-0.477,1.536-0.27c1.64,0.628,3.272,1.287,4.905,1.945c0.321,0.127,0.581,0.164,0.9-0.049
		c1.591-1.063,3.199-2.104,4.796-3.152c0.038-0.023,0.045-0.094,0.066-0.138C125.115,303.691,125.412,303.691,125.707,303.691z
		 M123.966,307.388c-1.146,0.771-2.11,1.413-3.069,2.065c-0.701,0.474-1.4,0.637-2.219,0.255c-0.854-0.4-1.744-0.72-2.619-1.059
		c-0.213-0.085-0.442-0.123-0.823-0.225c0.229,0.846,0.347,1.586,0.633,2.253c0.737,1.732,0.43,3.165-0.975,4.433
		c-0.553,0.502-0.962,1.157-1.436,1.743c0.028,0.078,0.051,0.158,0.073,0.238c1.073,0,2.145,0.004,3.215,0
		c1.02-0.006,1.813,0.353,2.343,1.283c0.478,0.838,1.022,1.636,1.547,2.449c0.096,0.148,0.233,0.274,0.415,0.479
		c0.418-1.113,0.85-2.093,1.152-3.113c0.33-1.122,1.01-1.732,2.158-1.906c0.493-0.068,0.97-0.248,1.455-0.37
		c0.529-0.142,1.063-0.281,1.763-0.463c-1.068-0.843-1.962-1.58-2.89-2.271c-0.701-0.523-0.984-1.174-0.914-2.045
		C123.868,309.96,123.899,308.783,123.966,307.388z"/>
	<path fill-rule="evenodd" clip-rule="evenodd" fill="#A1A1A1" d="M133.9,360.384c0.178-0.137,0.408-0.239,0.525-0.418
		c0.258-0.394,0.464-0.825,0.691-1.242c0,0.553,0,1.107,0,1.66C134.715,360.384,134.309,360.384,133.9,360.384z"/>
	<path fill-rule="evenodd" clip-rule="evenodd" fill="#A1A1A1" d="M78.422,359.167c0.261,0.551,0.652,0.971,1.22,1.217
		c-0.408,0-0.813,0-1.22,0C78.422,359.978,78.422,359.572,78.422,359.167z"/>
	<path fill-rule="evenodd" clip-rule="evenodd" fill="#A1A1A1" d="M93.371,337.115c-1.107,0-2.215-0.028-3.32,0.01
		c-0.893,0.028-1.406,0.537-1.563,1.407c-0.06,0.324-0.115,0.656-0.247,0.952c-0.297,0.669-1.016,0.999-1.742,0.856
		c-0.659-0.131-1.147-0.692-1.218-1.396c-0.216-2.105,1.476-4.414,3.634-4.901c0.549-0.124,1.123-0.183,1.686-0.192
		c1.865-0.021,3.73-0.047,5.593,0.005c1.747,0.044,2.271-0.563,2.38-2.214c0.15-2.267,2.17-4.289,4.434-4.359
		c2.283-0.07,4.572-0.056,6.857-0.084c1.003-0.014,1.585-0.356,1.826-1.111c0.097-0.293,0.113-0.61,0.176-0.915
		c0.158-0.767,0.854-1.288,1.654-1.239c0.771,0.048,1.381,0.637,1.451,1.403c0.226,2.433-1.956,4.964-4.389,5.034
		c-2.229,0.061-4.461,0.111-6.689,0.063c-1.668-0.035-2.139,0.756-2.209,2.153c-0.115,2.229-2.193,4.36-4.391,4.427
		c-1.307,0.037-2.613,0.007-3.922,0.007C93.371,337.05,93.371,337.083,93.371,337.115z"/>
</g>
<g>
	<path fill-rule="evenodd" clip-rule="evenodd" fill="#A1A1A1" d="M28.343,71.921c0.07-0.032,0.188-0.047,0.208-0.1
		c0.545-1.333,1.649-1.679,2.952-1.679c5.286,0,10.569,0,15.857,0c0.328,0,0.659,0,1.091,0c0.015-0.334,0.04-0.626,0.042-0.914
		c0.003-1.964-0.003-3.934,0.003-5.894c0.003-2.224,0.94-3.157,3.19-3.157c5.202-0.003,10.405,0,15.609,0c0.331,0,0.661,0,1.087,0
		c0.018-0.337,0.038-0.633,0.041-0.921c0.004-1.991-0.003-3.983,0.004-5.979c0.007-2.11,0.974-3.067,3.11-3.067
		c5.229-0.003,10.461,0,15.689,0c0.33,0,0.662,0,1.09,0c0.014-0.338,0.035-0.63,0.039-0.918c0.008-2.023,0.01-4.046-0.004-6.066
		c-0.004-1.611,0.727-2.991,2.936-2.984c6.363,0.011,12.729-0.01,19.098,0.008c1.77,0.007,2.291,0.464,3,2.435
		c0,13.286,0,26.579,0,39.865c-0.342,0.625-0.65,1.272-1.037,1.863c-0.176,0.268-0.521,0.422-0.787,0.627
		c-27.133,0-54.259,0-81.39,0c-0.851-0.369-1.438-0.999-1.83-1.825C28.343,79.45,28.343,75.681,28.343,71.921z M93.305,80.016
		c5.076,0,10.068,0,15.059,0c0-11.639,0-23.219,0-34.797c-5.049,0-10.041,0-15.059,0C93.305,56.835,93.305,68.397,93.305,80.016z
		 M88.291,55.188c-5.019,0-9.953,0-14.886,0c0,8.312,0,16.569,0,24.819c4.989,0,9.925,0,14.886,0
		C88.291,71.716,88.291,63.482,88.291,55.188z M68.354,65.157c-5.017,0-9.949,0-14.878,0c0,4.989,0,9.919,0,14.851
		c4.985,0,9.918,0,14.878,0C68.354,75.041,68.354,70.129,68.354,65.157z M48.409,75.129c-5.057,0-10.044,0-15.017,0
		c0,1.676,0,3.29,0,4.887c5.035,0,10.01,0,15.017,0C48.409,78.376,48.409,76.787,48.409,75.129z"/>
	<path fill-rule="evenodd" clip-rule="evenodd" fill="#A1A1A1" d="M99.271,0c0.201,0.161,0.385,0.348,0.598,0.492
		c0.662,0.442,1.102,1.039,1.059,1.851c-0.133,2.64-0.299,5.282-0.475,7.916c-0.045,0.642,0.008,1.125,0.604,1.57
		c1.939,1.459,3.82,2.994,5.725,4.503c1.465,1.16,1.818,2.631,0.74,3.744c-0.494,0.513-1.297,0.794-2.012,0.991
		c-2.32,0.647-4.67,1.189-6.994,1.824c-0.295,0.076-0.635,0.399-0.75,0.688c-0.945,2.435-1.861,4.881-2.754,7.333
		c-0.354,0.97-0.969,1.638-1.982,1.778c-1.084,0.149-1.91-0.365-2.49-1.289c-1.393-2.221-2.783-4.438-4.193-6.645
		c-0.145-0.222-0.424-0.468-0.654-0.489c-1.24-0.097-2.48-0.141-3.723-0.185c-1.598-0.062-3.202-0.082-4.796-0.181
		c-0.902-0.057-1.493-0.634-1.89-1.419c-0.5-0.98-0.176-1.839,0.439-2.599c1.576-1.957,3.155-3.905,4.819-5.792
		c0.55-0.615,0.539-1.119,0.331-1.825c-0.729-2.473-1.389-4.965-2.083-7.449c-0.278-0.979,0.146-1.7,0.845-2.324
		c0.688-0.609,1.493-0.715,2.305-0.404c2.459,0.941,4.908,1.931,7.357,2.918c0.482,0.19,0.873,0.246,1.352-0.073
		c2.387-1.594,4.799-3.155,7.193-4.729c0.057-0.035,0.068-0.141,0.1-0.207C98.385,0,98.83,0,99.271,0z M96.66,5.545
		c-1.721,1.155-3.166,2.119-4.604,3.098c-1.053,0.711-2.102,0.955-3.328,0.383c-1.281-0.601-2.617-1.08-3.93-1.588
		c-0.319-0.128-0.664-0.185-1.234-0.337c0.344,1.269,0.52,2.379,0.949,3.379c1.105,2.599,0.645,4.748-1.463,6.649
		c-0.828,0.753-1.442,1.735-2.152,2.614c0.042,0.117,0.076,0.237,0.109,0.357c1.609,0,3.217,0.006,4.822,0
		c1.529-0.009,2.719,0.529,3.514,1.925c0.717,1.257,1.535,2.454,2.32,3.674c0.145,0.223,0.352,0.412,0.623,0.72
		c0.627-1.67,1.275-3.14,1.729-4.67c0.496-1.684,1.516-2.599,3.238-2.859c0.738-0.103,1.453-0.372,2.182-0.556
		c0.795-0.212,1.594-0.422,2.645-0.694c-1.604-1.264-2.943-2.37-4.334-3.405c-1.053-0.785-1.477-1.761-1.371-3.067
		C96.514,9.403,96.561,7.638,96.66,5.545z"/>
	<path fill-rule="evenodd" clip-rule="evenodd" fill="#A1A1A1" d="M111.563,85.04c0.266-0.205,0.611-0.359,0.787-0.627
		c0.387-0.591,0.695-1.238,1.037-1.863c0,0.829,0,1.661,0,2.49C112.783,85.04,112.174,85.04,111.563,85.04z"/>
	<path fill-rule="evenodd" clip-rule="evenodd" fill="#A1A1A1" d="M28.343,83.215c0.391,0.826,0.979,1.456,1.83,1.825
		c-0.612,0-1.22,0-1.83,0C28.343,84.431,28.343,83.822,28.343,83.215z"/>
	<path fill-rule="evenodd" clip-rule="evenodd" fill="#A1A1A1" d="M50.768,50.137c-1.661,0-3.322-0.043-4.98,0.015
		c-1.339,0.042-2.109,0.806-2.345,2.11c-0.089,0.486-0.173,0.984-0.371,1.429c-0.445,1.003-1.523,1.498-2.613,1.284
		c-0.989-0.196-1.721-1.038-1.827-2.095c-0.324-3.158,2.213-6.621,5.451-7.352c0.823-0.187,1.685-0.274,2.528-0.289
		c2.798-0.032,5.596-0.07,8.389,0.008c2.621,0.065,3.406-0.846,3.57-3.321c0.226-3.4,3.255-6.434,6.65-6.539
		c3.425-0.105,6.858-0.084,10.286-0.126c1.504-0.021,2.377-0.535,2.739-1.667c0.146-0.439,0.17-0.916,0.264-1.373
		c0.237-1.149,1.28-1.932,2.481-1.858c1.157,0.071,2.071,0.955,2.177,2.104c0.339,3.649-2.935,7.446-6.583,7.552
		c-3.343,0.091-6.691,0.167-10.034,0.094c-2.502-0.053-3.208,1.134-3.313,3.23c-0.173,3.343-3.29,6.54-6.586,6.64
		c-1.96,0.056-3.92,0.011-5.883,0.011C50.768,50.038,50.768,50.088,50.768,50.137z"/>
</g>
</svg>
