<?xml version="1.0" encoding="utf-8"?>
<!-- Generator: Adobe Illustrator 16.0.0, SVG Export Plug-In . SVG Version: 6.00 Build 0)  -->
<!DOCTYPE svg PUBLIC "-//W3C//DTD SVG 1.1//EN" "http://www.w3.org/Graphics/SVG/1.1/DTD/svg11.dtd">
<svg version="1.1" id="Layer_1" xmlns="http://www.w3.org/2000/svg" xmlns:xlink="http://www.w3.org/1999/xlink" x="0px" y="0px"
	 width="141.73px" height="85.04px" viewBox="0 0 141.73 85.04" enable-background="new 0 0 141.73 85.04" xml:space="preserve">
<g>
	<path fill-rule="evenodd" clip-rule="evenodd" fill="#A1A1A1" d="M129.046,50.554c-0.201,1.047-0.368,2.102-0.616,3.135
		c-1.643,6.999-5.86,12.222-11.526,16.376c-0.892,0.65-1.016,1.14-0.639,2.139c1.438,3.838,2.767,7.712,4.134,11.58
		c0.122,0.346,0.223,0.698,0.399,1.256c-2.225-1.225-4.239-2.386-6.302-3.454c-2.995-1.545-6.022-3.025-9.042-4.521
		c-0.925-0.458-1.84-0.441-2.875-0.171c-13.845,3.557-27.16,2.407-39.672-4.807c-6.025-3.472-10.835-8.234-13.396-14.836
		c-3.512-9.006-1.628-17.207,4.438-24.477c5.667-6.791,13.188-10.665,21.661-12.675c12.646-2.998,24.919-1.918,36.535,4.156
		c6.516,3.403,11.821,8.155,14.794,15.041c0.91,2.112,1.271,4.47,1.892,6.708c0.057,0.217,0.143,0.427,0.216,0.636
		C129.046,47.941,129.046,49.247,129.046,50.554z"/>
	<path fill-rule="evenodd" clip-rule="evenodd" fill="#A1A1A1" d="M59.805,4.56c9.231,0.755,16.989,3.568,23.717,8.599
		c0.099,0.071,0.355,0.159,0.555,0.162c1.129,0.017,2.258,0.022,3.39,0.022l2.666-0.009c-2.578-2.666-6.422-5.57-9.965-7.429
		C71.133,1.17,61.095-0.73,50.271,0.252c-8.758,0.793-16.58,3.488-23.25,8.012c-6.955,4.718-11.313,10.377-13.324,17.299
		c-0.309,1.065-0.51,2.169-0.723,3.339c-0.093,0.516-0.188,1.031-0.29,1.544v3.858l0.168,0.975c0.12,0.7,0.237,1.397,0.389,2.09
		c1.402,6.416,4.817,11.825,10.434,16.537c1.272,1.07,1.579,2.242,1,3.806c-1.558,4.252-3.073,8.527-4.587,12.805l-1.167,3.291
		l3.706-2.04c4.771-2.623,9.544-5.246,14.298-7.905c1.831-1.027,3.62-1.245,5.811-0.675c1.376,0.36,2.807,0.614,4.305,0.855
		c-0.104-0.167-0.217-0.337-0.331-0.507c-0.465-0.698-0.989-1.488-1.238-2.437c-0.413-1.572-1.249-2.219-3.435-2.662
		c-1.803-0.365-3.047-0.277-4.307,0.297c-1.285,0.588-2.567,1.193-3.851,1.802l-2.166,1.02c-0.218,0.103-0.44,0.195-0.727,0.313
		l-3.71,1.568l1.89-5.297c0.547-1.554,1.065-3.021,1.62-4.471c-0.514-0.396-1.039-0.793-1.565-1.187
		c-1.899-1.432-3.865-2.911-5.568-4.674c-8.457-8.758-8.759-20.91-0.753-30.234c3.13-3.641,6.995-6.496,11.818-8.729
		C42.434,5.274,50.872,3.832,59.805,4.56z"/>
</g>
<polygon fill-rule="evenodd" clip-rule="evenodd" fill="#FFFFFF" points="88.441,34.376 92.088,41.766 100.242,42.951 
	94.341,48.702 95.735,56.823 88.441,52.988 81.147,56.823 82.542,48.702 76.641,42.951 84.795,41.766 "/>
<polygon fill-rule="evenodd" clip-rule="evenodd" fill="#FFFFFF" points="112.539,37.646 115.123,42.883 120.903,43.722 
	116.721,47.799 117.708,53.554 112.539,50.837 107.37,53.554 108.357,47.799 104.175,43.722 109.955,42.883 "/>
<polygon fill-rule="evenodd" clip-rule="evenodd" fill="#FFFFFF" points="64.343,37.646 66.927,42.883 72.707,43.722 68.525,47.799 
	69.513,53.554 64.343,50.837 59.174,53.554 60.162,47.799 55.979,43.722 61.759,42.883 "/>
</svg>
