<?xml version="1.0" encoding="utf-8"?>
<!-- Generator: Adobe Illustrator 16.0.0, SVG Export Plug-In . SVG Version: 6.00 Build 0)  -->
<!DOCTYPE svg PUBLIC "-//W3C//DTD SVG 1.1//EN" "http://www.w3.org/Graphics/SVG/1.1/DTD/svg11.dtd">
<svg version="1.1" id="Layer_1" xmlns="http://www.w3.org/2000/svg" xmlns:xlink="http://www.w3.org/1999/xlink" x="0px" y="0px"
	 width="141.73px" height="85.04px" viewBox="0 0 141.73 85.04" enable-background="new 0 0 141.73 85.04" xml:space="preserve">
<g>
	<path fill-rule="evenodd" clip-rule="evenodd" fill="#A1A1A1" d="M78.422,351.638c0.047-0.021,0.125-0.031,0.139-0.066
		c0.363-0.889,1.1-1.119,1.968-1.119c3.523,0,7.046,0,10.571,0c0.219,0,0.439,0,0.728,0c0.01-0.223,0.026-0.417,0.028-0.609
		c0.002-1.309-0.002-2.622,0.002-3.929c0.002-1.482,0.627-2.104,2.127-2.104c3.468-0.002,6.937,0,10.406,0c0.221,0,0.44,0,0.725,0
		c0.012-0.225,0.025-0.422,0.027-0.614c0.003-1.327-0.002-2.655,0.003-3.985c0.005-1.407,0.649-2.045,2.073-2.045
		c3.486-0.002,6.974,0,10.459,0c0.221,0,0.441,0,0.728,0c0.009-0.226,0.023-0.42,0.025-0.612c0.005-1.349,0.007-2.697-0.002-4.044
		c-0.003-1.074,0.483-1.994,1.956-1.989c4.243,0.007,8.486-0.007,12.732,0.005c1.18,0.005,1.527,0.31,2,1.623
		c0,8.857,0,17.719,0,26.576c-0.228,0.417-0.434,0.849-0.691,1.242c-0.117,0.179-0.348,0.281-0.525,0.418
		c-18.088,0-36.172,0-54.259,0c-0.567-0.246-0.959-0.666-1.22-1.217C78.422,356.657,78.422,354.145,78.422,351.638z
		 M121.729,357.034c3.385,0,6.713,0,10.039,0c0-7.759,0-15.479,0-23.197c-3.365,0-6.693,0-10.039,0
		C121.729,341.581,121.729,349.289,121.729,357.034z M118.387,340.483c-3.346,0-6.636,0-9.924,0c0,5.541,0,11.046,0,16.546
		c3.326,0,6.616,0,9.924,0C118.387,351.501,118.387,346.013,118.387,340.483z M105.096,347.129c-3.345,0-6.633,0-9.919,0
		c0,3.326,0,6.612,0,9.9c3.323,0,6.612,0,9.919,0C105.096,353.718,105.096,350.443,105.096,347.129z M91.799,353.776
		c-3.371,0-6.696,0-10.011,0c0,1.117,0,2.193,0,3.258c3.356,0,6.673,0,10.011,0C91.799,355.941,91.799,354.882,91.799,353.776z"/>
	<path fill-rule="evenodd" clip-rule="evenodd" fill="#A1A1A1" d="M125.707,303.691c0.134,0.107,0.256,0.231,0.398,0.328
		c0.441,0.295,0.734,0.692,0.706,1.233c-0.089,1.76-0.199,3.521-0.316,5.277c-0.03,0.428,0.005,0.75,0.401,1.047
		c1.293,0.973,2.547,1.996,3.816,3.002c0.978,0.773,1.213,1.754,0.494,2.496c-0.33,0.342-0.865,0.529-1.342,0.661
		c-1.547,0.432-3.112,0.793-4.662,1.216c-0.197,0.051-0.423,0.267-0.5,0.459c-0.631,1.623-1.241,3.254-1.836,4.889
		c-0.235,0.646-0.646,1.092-1.321,1.186c-0.723,0.1-1.273-0.243-1.661-0.859c-0.928-1.48-1.855-2.959-2.795-4.43
		c-0.097-0.147-0.282-0.312-0.437-0.326c-0.826-0.064-1.653-0.094-2.481-0.123c-1.065-0.041-2.135-0.055-3.197-0.12
		c-0.602-0.038-0.995-0.423-1.26-0.946c-0.333-0.653-0.117-1.226,0.293-1.732c1.051-1.305,2.104-2.604,3.213-3.861
		c0.366-0.41,0.359-0.746,0.221-1.217c-0.485-1.648-0.926-3.31-1.389-4.966c-0.186-0.652,0.097-1.134,0.563-1.55
		c0.458-0.406,0.995-0.477,1.536-0.27c1.64,0.628,3.272,1.287,4.905,1.945c0.321,0.127,0.581,0.164,0.9-0.049
		c1.591-1.063,3.199-2.104,4.796-3.152c0.038-0.023,0.045-0.094,0.066-0.138C125.115,303.691,125.412,303.691,125.707,303.691z
		 M123.966,307.388c-1.146,0.771-2.11,1.413-3.069,2.065c-0.701,0.474-1.4,0.637-2.219,0.255c-0.854-0.4-1.744-0.72-2.619-1.059
		c-0.213-0.085-0.442-0.123-0.823-0.225c0.229,0.846,0.347,1.586,0.633,2.253c0.737,1.732,0.43,3.165-0.975,4.433
		c-0.553,0.502-0.962,1.157-1.436,1.743c0.028,0.078,0.051,0.158,0.073,0.238c1.073,0,2.145,0.004,3.215,0
		c1.02-0.006,1.813,0.353,2.343,1.283c0.478,0.838,1.022,1.636,1.547,2.449c0.096,0.148,0.233,0.274,0.415,0.479
		c0.418-1.113,0.85-2.093,1.152-3.113c0.33-1.122,1.01-1.732,2.158-1.906c0.493-0.068,0.97-0.248,1.455-0.37
		c0.529-0.142,1.063-0.281,1.763-0.463c-1.068-0.843-1.962-1.58-2.89-2.271c-0.701-0.523-0.984-1.174-0.914-2.045
		C123.868,309.96,123.899,308.783,123.966,307.388z"/>
	<path fill-rule="evenodd" clip-rule="evenodd" fill="#A1A1A1" d="M133.9,360.384c0.178-0.137,0.408-0.239,0.525-0.418
		c0.258-0.394,0.464-0.825,0.691-1.242c0,0.553,0,1.107,0,1.66C134.715,360.384,134.309,360.384,133.9,360.384z"/>
	<path fill-rule="evenodd" clip-rule="evenodd" fill="#A1A1A1" d="M78.422,359.167c0.261,0.551,0.652,0.971,1.22,1.217
		c-0.408,0-0.813,0-1.22,0C78.422,359.978,78.422,359.572,78.422,359.167z"/>
	<path fill-rule="evenodd" clip-rule="evenodd" fill="#A1A1A1" d="M93.371,337.115c-1.107,0-2.215-0.028-3.32,0.01
		c-0.893,0.028-1.406,0.537-1.563,1.407c-0.06,0.324-0.115,0.656-0.247,0.952c-0.297,0.669-1.016,0.999-1.742,0.856
		c-0.659-0.131-1.147-0.692-1.218-1.396c-0.216-2.105,1.476-4.414,3.634-4.901c0.549-0.124,1.123-0.183,1.686-0.192
		c1.865-0.021,3.73-0.047,5.593,0.005c1.747,0.044,2.271-0.563,2.38-2.214c0.15-2.267,2.17-4.289,4.434-4.359
		c2.283-0.07,4.572-0.056,6.857-0.084c1.003-0.014,1.585-0.356,1.826-1.111c0.097-0.293,0.113-0.61,0.176-0.915
		c0.158-0.767,0.854-1.288,1.654-1.239c0.771,0.048,1.381,0.637,1.451,1.403c0.226,2.433-1.956,4.964-4.389,5.034
		c-2.229,0.061-4.461,0.111-6.689,0.063c-1.668-0.035-2.139,0.756-2.209,2.153c-0.115,2.229-2.193,4.36-4.391,4.427
		c-1.307,0.037-2.613,0.007-3.922,0.007C93.371,337.05,93.371,337.083,93.371,337.115z"/>
</g>
<g>
	<path fill-rule="evenodd" clip-rule="evenodd" fill="#A1A1A1" d="M122.197,46.594c1.449,0,1.865-0.354,2.113-0.957V38.6
		c-0.422-1.042-0.566-1.042-1.572-1.042l-30.945-0.006l-30.941,0.006c-1.404,0-1.564,0.307-1.589,1.509
		c-0.025,1.223-0.018,2.44-0.011,3.655l0.005,1.667c0.001,2.143,0.044,2.184,2.16,2.184l30.93-0.008
		c9.941,0,19.879,0.008,29.82,0.029l0.029,2.498l0,0V46.594z"/>
	<path fill-rule="evenodd" clip-rule="evenodd" fill="#A1A1A1" d="M124.311,8.018c-0.436-1.004-0.615-1.004-2.156-1.004
		L66.549,7.005c-1.843,0-3.684,0.002-5.527,0.008c-1.559,0.005-1.759,0.072-1.765,1.82l-0.002,3.306l0.002,1.665
		c0.001,2.155,0.187,2.218,2.168,2.218h60.754c1.516,0,1.682,0,2.131-1.062V8.018z"/>
	<path fill-rule="evenodd" clip-rule="evenodd" fill="#A1A1A1" d="M60.583,81.502l0.202,0.004l0.511-0.004h61.024
		c1.18,0,1.48-0.102,1.545-0.133c0.014-0.021,0.16-0.207,0.445-0.953V73.66c-0.42-1.061-0.518-1.061-1.414-1.061l-24.162-0.002
		l-38.131,0.008c-1.123,0-1.302,0.275-1.333,1.229c-0.07,2.328-0.068,4.449,0.008,6.486C59.309,81.178,59.382,81.477,60.583,81.502z
		"/>
	<path fill-rule="evenodd" clip-rule="evenodd" fill="#A1A1A1" d="M46.839,4.215c0.21-0.213,0.321-0.366,0.378-0.456
		c-0.057-0.09-0.168-0.24-0.376-0.448c-1.045-1.058-2.09-2.09-3.15-3.108C43.572,0.086,43.488,0.028,43.44,0
		c-0.021,0.027-0.122,0.086-0.265,0.208c-0.347,0.303-0.7,0.658-1.045,1.008L27.244,16.24l-3.168-3.594
		c-1.063-1.215-2.089-2.392-3.158-3.528c-0.011-0.012-0.024-0.024-0.034-0.036c-0.996,0.968-1.924,2.024-2.901,3.133
		c-0.15,0.17-0.296,0.338-0.446,0.505c0.207,0.269,0.41,0.517,0.612,0.723c2.46,2.491,4.946,4.97,7.433,7.448l1.491,1.489
		c0.432,0.43,0.689,0.593,0.804,0.651c0.114-0.059,0.373-0.222,0.808-0.653L42.771,8.294C44.132,6.941,45.493,5.587,46.839,4.215z"
		/>
	<path fill-rule="evenodd" clip-rule="evenodd" fill="#A1A1A1" d="M42.182,31.604L27.359,46.447l-3.106-3.356
		c-1.068-1.164-2.119-2.307-3.204-3.418c-0.062-0.065-0.122-0.112-0.172-0.146c-1.001,0.962-1.94,2.009-2.93,3.113
		c-0.176,0.197-0.352,0.395-0.527,0.59c3.321,3.356,6.632,6.698,9.982,10.006c0.192,0.191,0.331,0.289,0.41,0.336
		c0.091-0.051,0.26-0.166,0.505-0.41c3.145-3.125,6.28-6.248,9.412-9.373l5.351-5.324c1.271-1.261,2.544-2.521,3.792-3.798
		c0.208-0.212,0.315-0.361,0.371-0.451c-0.059-0.095-0.176-0.257-0.403-0.491c-0.434-0.446-0.865-0.878-1.296-1.308l-0.763-0.767
		c-0.676-0.688-1.076-1.04-1.311-1.221C43.234,30.606,42.843,30.946,42.182,31.604z"/>
	<path fill-rule="evenodd" clip-rule="evenodd" fill="#A1A1A1" d="M28.754,69.033c-2.123,0-4.214,0.902-5.775,2.48
		c-1.516,1.529-2.375,3.545-2.355,5.529c0.037,4.41,3.702,7.996,8.165,7.996h0.015h0.002c2.064,0,4.12-0.875,5.639-2.4
		c1.527-1.531,2.36-3.51,2.351-5.568C36.771,72.74,33.089,69.059,28.754,69.033z"/>
</g>
</svg>
